<svg aria-hidden="true" style="position: absolute; width: 0; height: 0; overflow: hidden;" version="1.1" xmlns="http://www.w3.org/2000/svg" xmlns:xlink="http://www.w3.org/1999/xlink">
<defs>
<symbol id="icon-shopping-bag" viewBox="0 0 28 28">
<path d="M27.453 22l0.547 4.891c0.031 0.281-0.063 0.562-0.25 0.781-0.187 0.203-0.469 0.328-0.75 0.328h-26c-0.281 0-0.562-0.125-0.75-0.328-0.187-0.219-0.281-0.5-0.25-0.781l0.547-4.891h26.906zM26 8.891l1.344 12.109h-26.688l1.344-12.109c0.063-0.5 0.484-0.891 1-0.891h4v2c0 1.109 0.891 2 2 2s2-0.891 2-2v-2h6v2c0 1.109 0.891 2 2 2s2-0.891 2-2v-2h4c0.516 0 0.938 0.391 1 0.891zM20 6v4c0 0.547-0.453 1-1 1s-1-0.453-1-1v-4c0-2.203-1.797-4-4-4s-4 1.797-4 4v4c0 0.547-0.453 1-1 1s-1-0.453-1-1v-4c0-3.313 2.688-6 6-6s6 2.688 6 6z"></path>
</symbol>
<symbol id="icon-paw" viewBox="0 0 26 28">
<path d="M12.187 7.375c0 1.75-0.906 3.828-2.922 3.828-2.531 0-4.062-3.187-4.062-5.375 0-1.75 0.906-3.828 2.922-3.828 2.547 0 4.062 3.187 4.062 5.375zM6.844 14.922c0 1.516-0.797 3.094-2.516 3.094-2.5 0-4.328-3.063-4.328-5.328 0-1.516 0.812-3.109 2.516-3.109 2.5 0 4.328 3.078 4.328 5.344zM13 14.5c3.828 0 9 5.516 9 9.203 0 1.984-1.625 2.297-3.219 2.297-2.094 0-3.781-1.406-5.781-1.406-2.094 0-3.875 1.391-6.141 1.391-1.516 0-2.859-0.516-2.859-2.281 0-3.703 5.172-9.203 9-9.203zM16.734 11.203c-2.016 0-2.922-2.078-2.922-3.828 0-2.188 1.516-5.375 4.062-5.375 2.016 0 2.922 2.078 2.922 3.828 0 2.188-1.531 5.375-4.062 5.375zM23.484 9.578c1.703 0 2.516 1.594 2.516 3.109 0 2.266-1.828 5.328-4.328 5.328-1.719 0-2.516-1.578-2.516-3.094 0-2.266 1.828-5.344 4.328-5.344z"></path>
</symbol>
<symbol id="icon-automobile" viewBox="0 0 32 28">
<path d="M7.5 17c0-1.375-1.125-2.5-2.5-2.5s-2.5 1.125-2.5 2.5 1.125 2.5 2.5 2.5 2.5-1.125 2.5-2.5zM8.062 12h15.875l-1.391-5.578c-0.047-0.172-0.359-0.422-0.547-0.422h-12c-0.187 0-0.5 0.25-0.547 0.422zM29.5 17c0-1.375-1.125-2.5-2.5-2.5s-2.5 1.125-2.5 2.5 1.125 2.5 2.5 2.5 2.5-1.125 2.5-2.5zM32 15.5v6c0 0.281-0.219 0.5-0.5 0.5h-1.5v2c0 1.656-1.344 3-3 3s-3-1.344-3-3v-2h-16v2c0 1.656-1.344 3-3 3s-3-1.344-3-3v-2h-1.5c-0.281 0-0.5-0.219-0.5-0.5v-6c0-1.937 1.563-3.5 3.5-3.5h0.438l1.641-6.547c0.484-1.969 2.391-3.453 4.422-3.453h12c2.031 0 3.938 1.484 4.422 3.453l1.641 6.547h0.438c1.937 0 3.5 1.563 3.5 3.5z"></path>
</symbol>
<symbol id="icon-construction" viewBox="0 0 24 24">
<path d="M13.781 15.188l2.109-2.156 6 6-2.109 2.156zM17.484 9.984q0.984 0 1.781-0.469t1.266-1.266 0.469-1.734q0-0.469-0.117-0.867t-0.305-0.727l-2.672 2.672-1.5-1.5 2.672-2.672q-0.328-0.188-0.727-0.305t-0.867-0.117q-0.938 0-1.734 0.469t-1.266 1.266-0.469 1.781q0 0.563 0.188 1.125l-1.828 1.875-1.781-1.781 0.703-0.703-1.406-1.406 2.109-2.156q-0.563-0.563-1.336-0.75t-1.547 0-1.336 0.75l-3.563 3.563 1.406 1.406h-2.813l-0.703 0.703 3.516 3.563 0.703-0.703v-2.859l1.453 1.406 0.703-0.703 1.781 1.781-7.406 7.406 2.109 2.109 11.391-11.344q0.563 0.188 1.125 0.188z"></path>
</symbol>
<symbol id="icon-toys" viewBox="0 0 24 24">
<path d="M12 12q0 2.25-1.617 3.867t-3.867 1.617-3.891-1.617-1.641-3.867h11.016zM12 12q-2.25 0-3.867-1.617t-1.617-3.867 1.617-3.891 3.867-1.641v11.016zM12 12q2.25 0 3.867 1.617t1.617 3.867-1.617 3.891-3.867 1.641v-11.016zM12 12q0-2.25 1.617-3.867t3.867-1.617 3.891 1.617 1.641 3.867h-11.016z"></path>
</symbol>
<symbol id="icon-child_care" viewBox="0 0 24 24">
<path d="M7.5 14.016h9q-0.563 1.359-1.781 2.18t-2.719 0.82-2.719-0.82-1.781-2.18zM12 18.984q2.391 0 4.242-1.406t2.461-3.609q0.047 0 0.141 0.023t0.141 0.023q0.797 0 1.406-0.609t0.609-1.406-0.609-1.406-1.406-0.609q-0.047 0-0.141 0.023t-0.141 0.023q-0.609-2.203-2.461-3.609t-4.242-1.406-4.242 1.406-2.461 3.609q-0.047 0-0.141-0.023t-0.141-0.023q-0.797 0-1.406 0.609t-0.609 1.406 0.609 1.406 1.406 0.609q0.047 0 0.141-0.023t0.141-0.023q0.609 2.203 2.461 3.609t4.242 1.406zM22.922 12.656q-0.188 1.031-0.984 1.969t-1.781 1.219q-1.031 2.203-3.258 3.68t-4.898 1.477q-3.328 0-5.953-2.297-1.453-1.266-2.156-2.859-0.984-0.281-1.805-1.219t-1.008-1.969q-0.094-0.375-0.094-0.656t0.094-0.656q0.188-1.031 1.008-1.969t1.805-1.219q0.797-1.781 2.156-2.906 2.531-2.25 5.953-2.25t5.953 2.25q1.453 1.359 2.156 2.906 0.984 0.281 1.805 1.219t1.008 1.969q0.094 0.375 0.094 0.656t-0.094 0.656zM8.25 10.5q0-0.516 0.375-0.891t0.891-0.375 0.867 0.375 0.352 0.891-0.352 0.891-0.867 0.375-0.891-0.375-0.375-0.891zM13.266 10.5q0-0.516 0.352-0.891t0.867-0.375 0.891 0.375 0.375 0.891-0.375 0.891-0.891 0.375-0.867-0.375-0.352-0.891z"></path>
</symbol>
<symbol id="icon-home" viewBox="0 0 32 32">
<path d="M32 18.451l-16-12.42-16 12.42v-5.064l16-12.42 16 12.42zM28 18v12h-8v-8h-8v8h-8v-12l12-9z"></path>
</symbol>
<symbol id="icon-office" viewBox="0 0 32 32">
<path d="M0 32h16v-32h-16v32zM10 4h4v4h-4v-4zM10 12h4v4h-4v-4zM10 20h4v4h-4v-4zM2 4h4v4h-4v-4zM2 12h4v4h-4v-4zM2 20h4v4h-4v-4zM18 10h14v2h-14zM18 32h4v-8h6v8h4v-18h-14z"></path>
</symbol>
<symbol id="icon-tv" viewBox="0 0 32 32">
<path d="M30.662 9.003c-2.775-0.399-5.731-0.688-8.815-0.851l5.153-5.153-2-2-7.017 7.017c-0.656-0.011-1.317-0.017-1.983-0.017v0l-8-8-2 2 6.069 6.069c-3.779 0.133-7.386 0.454-10.731 0.935-0.86 3.366-1.338 7.086-1.338 10.997s0.477 7.63 1.338 10.997c4.489 0.645 9.448 1.003 14.662 1.003s10.173-0.358 14.662-1.003c0.86-3.366 1.338-7.086 1.338-10.997s-0.477-7.63-1.338-10.997zM26.997 27.331c-3.367 0.43-7.086 0.669-10.997 0.669s-7.63-0.239-10.997-0.669c-0.645-2.244-1.003-4.724-1.003-7.331s0.358-5.087 1.003-7.331c3.366-0.43 7.086-0.669 10.997-0.669s7.63 0.239 10.996 0.669c0.645 2.244 1.004 4.724 1.004 7.331s-0.358 5.087-1.003 7.331z"></path>
</symbol>
<symbol id="icon-wrench" viewBox="0 0 32 32">
<path d="M31.342 25.559l-14.392-12.336c0.67-1.259 1.051-2.696 1.051-4.222 0-4.971-4.029-9-9-9-0.909 0-1.787 0.135-2.614 0.386l5.2 5.2c0.778 0.778 0.778 2.051 0 2.828l-3.172 3.172c-0.778 0.778-2.051 0.778-2.828 0l-5.2-5.2c-0.251 0.827-0.386 1.705-0.386 2.614 0 4.971 4.029 9 9 9 1.526 0 2.963-0.38 4.222-1.051l12.336 14.392c0.716 0.835 1.938 0.882 2.716 0.104l3.172-3.172c0.778-0.778 0.731-2-0.104-2.716z"></path>
</symbol>
<symbol id="icon-arrow-right2" viewBox="0 0 32 32">
<path d="M19.414 27.414l10-10c0.781-0.781 0.781-2.047 0-2.828l-10-10c-0.781-0.781-2.047-0.781-2.828 0s-0.781 2.047 0 2.828l6.586 6.586h-19.172c-1.105 0-2 0.895-2 2s0.895 2 2 2h19.172l-6.586 6.586c-0.39 0.39-0.586 0.902-0.586 1.414s0.195 1.024 0.586 1.414c0.781 0.781 2.047 0.781 2.828 0z"></path>
</symbol>
</defs>
</svg>
